# xmcd
#
# Track frame offsets:
#	150
#	14417
#	28952
#	42162
#	58887
#	73675
#	89810
#	104722
#	120307
#	138800
#	153055
#	167590
#	184287
#	198170
#	215292
#	230967
#
# Disc length: 3269 seconds
#
# Revision: 1
# Processed by: cddbd v1.5.2PL0 Copyright (c) Steve Scherf et al.
# Submitted via: EasyCDDAExtractor 15.3.0.1
#
DISCID=e60cc310
DTITLE=Shakira - She Wolf
DYEAR=2009
DGENRE=Pop
TTITLE0=She Wolf
TTITLE1=Did It Again
TTITLE2=Long Time
TTITLE3=Why Wait
TTITLE4=Good Stuff
TTITLE5=Men In This Town
TTITLE6=Gypsy
TTITLE7=Spy (Featuring Wyclef Jean)
TTITLE8=Mon Amour
TTITLE9=Loba
TTITLE10=Lo Hecho Esta Hecho
TTITLE11=Años Luz
TTITLE12=Give It Up To Me (Featuring Lil Wayne)
TTITLE13=Did It Again (Featuring Kid Cudi)
TTITLE14=Gypsy (Live)
TTITLE15=She Wolf (Live)
EXTD=
EXTT0=
EXTT1=
EXTT2=
EXTT3=
EXTT4=
EXTT5=
EXTT6=
EXTT7=
EXTT8=
EXTT9=
EXTT10=
EXTT11=
EXTT12=
EXTT13=
EXTT14=
EXTT15=
PLAYORDER=
